<svg width="512" height="512" viewBox="0 0 512 512" fill="none" xmlns="http://www.w3.org/2000/svg">
  <rect width="512" height="512" rx="96" fill="#F9F2F9"/>

  <!-- Document body — centered -->
  <rect x="88" y="72" width="236" height="340" rx="24" fill="#645D8F"/>

  <!-- Text lines -->
  <rect x="128" y="140" width="156" height="12" rx="6" fill="#C1BBDA" opacity="0.55"/>
  <rect x="128" y="174" width="120" height="12" rx="6" fill="#C1BBDA" opacity="0.55"/>

  <!-- Highlighted line — amber bar + text -->
  <rect x="120" y="210" width="172" height="28" rx="7" fill="#FAAF71" opacity="0.28"/>
  <rect x="128" y="220" width="140" height="12" rx="6" fill="#FAAF71"/>

  <!-- More text lines -->
  <rect x="128" y="264" width="156" height="12" rx="6" fill="#C1BBDA" opacity="0.55"/>
  <rect x="128" y="298" width="100" height="12" rx="6" fill="#C1BBDA" opacity="0.35"/>

  <!-- Annotation margin bracket (left side) -->
  <path d="M72 210 Q60 210 60 222 L60 234 Q60 246 72 246" stroke="#756FA7" stroke-width="6" fill="none" stroke-linecap="round" stroke-linejoin="round"/>

  <!-- Flow arrow from highlight toward spark -->
  <path d="M296 224 C330 224 350 200 368 168" stroke="#FAAF71" stroke-width="4" fill="none" stroke-linecap="round" stroke-dasharray="8 6"/>

  <!-- AI Spark — larger, upper-right -->
  <path d="M392 96 L404 152 L460 168 L404 184 L392 240 L380 184 L324 168 L380 152 Z" fill="#FAAF71"/>

  <!-- Small trailing spark -->
  <path d="M444 80 L449 91 L460 96 L449 101 L444 112 L439 101 L428 96 L439 91 Z" fill="#FAAF71" opacity="0.55"/>
</svg>
