<svg width="512" height="512" viewBox="0 0 512 512" fill="none" xmlns="http://www.w3.org/2000/svg">
  <rect width="512" height="512" rx="96" fill="#F9F2F9"/>

  <!-- Document body -->
  <rect x="64" y="80" width="252" height="352" rx="24" fill="#645D8F"/>

  <!-- Text lines -->
  <rect x="108" y="152" width="164" height="14" rx="7" fill="#C1BBDA" opacity="0.55"/>
  <rect x="108" y="192" width="128" height="14" rx="7" fill="#C1BBDA" opacity="0.55"/>

  <!-- Highlighted line — amber bar + text -->
  <rect x="100" y="232" width="184" height="32" rx="8" fill="#FAAF71" opacity="0.28"/>
  <rect x="108" y="244" width="148" height="14" rx="7" fill="#FAAF71"/>

  <!-- More text lines -->
  <rect x="108" y="296" width="164" height="14" rx="7" fill="#C1BBDA" opacity="0.55"/>
  <rect x="108" y="336" width="108" height="14" rx="7" fill="#C1BBDA" opacity="0.35"/>

  <!-- AI Spark — main 4-point star, overlapping document right edge -->
  <path d="M340 132 L352 188 L408 200 L352 212 L340 268 L328 212 L272 200 L328 188 Z" fill="#FAAF71"/>

  <!-- Small trailing spark -->
  <path d="M404 116 L410 130 L424 136 L410 142 L404 156 L398 142 L384 136 L398 130 Z" fill="#FAAF71" opacity="0.6"/>
</svg>
