<svg width="512" height="512" viewBox="0 0 512 512" fill="none" xmlns="http://www.w3.org/2000/svg">
  <rect width="512" height="512" rx="96" fill="#F9F2F9"/>

  <!-- Document body — larger, more centered -->
  <rect x="72" y="68" width="260" height="376" rx="24" fill="#645D8F"/>

  <!-- Text lines -->
  <rect x="120" y="140" width="164" height="14" rx="7" fill="#C1BBDA" opacity="0.5"/>
  <rect x="120" y="180" width="132" height="14" rx="7" fill="#C1BBDA" opacity="0.5"/>

  <!-- Highlighted line — amber bar + text -->
  <rect x="112" y="220" width="180" height="32" rx="8" fill="#FAAF71" opacity="0.25"/>
  <rect x="120" y="232" width="148" height="14" rx="7" fill="#FAAF71"/>

  <!-- More text lines -->
  <rect x="120" y="280" width="164" height="14" rx="7" fill="#C1BBDA" opacity="0.5"/>
  <rect x="120" y="320" width="112" height="14" rx="7" fill="#C1BBDA" opacity="0.3"/>
  <rect x="120" y="360" width="164" height="14" rx="7" fill="#C1BBDA" opacity="0.3"/>

  <!-- Highlighter pen (diagonal, touching the highlighted line) -->
  <g transform="translate(316, 248) rotate(-45)">
    <rect x="-10" y="-72" width="20" height="96" rx="4" fill="#756FA7"/>
    <rect x="-8" y="-72" width="16" height="20" rx="3" fill="#FAAF71"/>
    <polygon points="-10,24 10,24 0,40" fill="#645D8F"/>
  </g>

  <!-- AI Spark — upper right, offset from pen -->
  <path d="M388 108 L398 150 L440 160 L398 170 L388 212 L378 170 L336 160 L378 150 Z" fill="#FAAF71"/>
</svg>
